<svg width="25" height="24" viewBox="0 0 25 24" fill="none" xmlns="http://www.w3.org/2000/svg">
<path d="M17.3118 5.65644C17.3118 4.95569 17.8808 4.38761 18.5827 4.38761C19.2846 4.38761 19.8536 4.95569 19.8536 5.65644C19.8536 6.35719 19.2846 6.92526 18.5827 6.92526C17.8808 6.92526 17.3118 6.35719 17.3118 5.65644Z" fill="black"/>
<path fill-rule="evenodd" clip-rule="evenodd" d="M12.2282 5.97364C8.89412 5.97364 6.19135 8.67199 6.19135 12.0006C6.19135 15.3292 8.89412 18.0275 12.2282 18.0275C15.5623 18.0275 18.265 15.3292 18.265 12.0006C18.265 8.67199 15.5623 5.97364 12.2282 5.97364ZM8.09771 12.0006C8.09771 9.72315 9.947 7.87688 12.2282 7.87688C14.5093 7.87688 16.3586 9.72315 16.3586 12.0006C16.3586 14.278 14.5093 16.1243 12.2282 16.1243C9.947 16.1243 8.09771 14.278 8.09771 12.0006Z" fill="black"/>
<path fill-rule="evenodd" clip-rule="evenodd" d="M18.9118 0.368705C14.5061 -0.122902 9.95192 -0.122902 5.54628 0.368705C2.98914 0.654026 0.924768 2.66513 0.624135 5.23137C0.0972934 9.72843 0.0972934 14.2716 0.624135 18.7687C0.924768 21.3349 2.98914 23.346 5.54628 23.6313C9.95192 24.1229 14.5061 24.1229 18.9118 23.6313C21.4689 23.346 23.5332 21.3349 23.8339 18.7687C24.3607 14.2716 24.3607 9.72843 23.8339 5.23137C23.5332 2.66513 21.4689 0.654026 18.9118 0.368705ZM5.75803 2.26016C10.023 1.78427 14.435 1.78427 18.7 2.26016C20.3905 2.44878 21.7445 3.78057 21.9405 5.45246C22.4501 9.80266 22.4501 14.1974 21.9405 18.5475C21.7445 20.2195 20.3905 21.5512 18.7 21.7399C14.435 22.2157 10.023 22.2157 5.75803 21.7399C4.06758 21.5512 2.71344 20.2195 2.51758 18.5475C2.00795 14.1974 2.00795 9.80266 2.51758 5.45246C2.71344 3.78057 4.06758 2.44878 5.75803 2.26016Z" fill="black"/>
</svg>
