<svg width="23" height="24" viewBox="0 0 23 24" fill="none" xmlns="http://www.w3.org/2000/svg">
<path d="M7.22826 4.98039C7.01571 4.94933 6.79892 4.992 6.614 5.10129H6.59823C6.16888 5.35296 5.78211 5.67105 5.45229 6.04372C5.1782 6.36062 5.02951 6.68127 4.99047 6.98991C4.96718 7.17389 4.98295 7.35787 5.03777 7.53359L5.05729 7.5456C5.36593 8.45274 5.76919 9.32533 6.26181 10.1468C6.89636 11.301 7.67729 12.3684 8.58522 13.3226L8.61225 13.3616L8.65505 13.3932L8.68208 13.4247L8.71362 13.4518C9.6713 14.3623 10.7412 15.1469 11.8976 15.7864C13.2193 16.5058 14.0213 16.846 14.5026 16.9872V16.9947C14.6438 17.0375 14.7722 17.057 14.9014 17.057C15.3116 17.027 15.7 16.8604 16.0045 16.5839C16.3755 16.254 16.69 15.8657 16.9357 15.4343V15.4267C17.1662 14.9927 17.0881 14.5819 16.7555 14.3041C16.0892 13.7217 15.3688 13.2045 14.604 12.7594C14.0918 12.4815 13.5715 12.6498 13.3605 12.9314L12.9107 13.4984C12.6801 13.7799 12.2611 13.7408 12.2611 13.7408L12.249 13.7484C9.12438 12.9501 8.29085 9.78639 8.29085 9.78639C8.29085 9.78639 8.25179 9.35614 8.54091 9.13684L9.10411 8.68328C9.3737 8.464 9.56145 7.94435 9.27232 7.43146C8.83033 6.66562 8.3142 5.94501 7.73139 5.28001C7.60398 5.12324 7.42523 5.01657 7.22676 4.97889L7.22826 4.98039Z" fill="black"/>
<path d="M12.5096 3.60496C12.1936 3.60496 11.9374 3.86112 11.9374 4.17711C11.9374 4.49309 12.1936 4.74925 12.5096 4.74925C13.9565 4.74925 15.1588 5.22221 16.1087 6.12783C16.5977 6.62376 16.9783 7.21079 17.2282 7.85318C17.479 8.49799 17.5931 9.18556 17.5638 9.8743C17.5504 10.19 17.7954 10.4567 18.1111 10.4701C18.4268 10.4836 18.6937 10.2385 18.707 9.92281C18.7431 9.07558 18.6026 8.23024 18.2945 7.43833C17.9865 6.64646 17.5177 5.92486 16.9168 5.31737L16.9054 5.30636C15.7267 4.17921 14.2328 3.60496 12.5096 3.60496Z" fill="black"/>
<path d="M12.4693 5.48678C12.1534 5.48678 11.8972 5.74294 11.8972 6.05893C11.8972 6.37491 12.1534 6.63107 12.4693 6.63107H12.488C13.5322 6.70465 14.2919 7.05267 14.8245 7.62395C15.3698 8.2123 15.6522 8.94307 15.6312 9.84729C15.6239 10.1631 15.8742 10.4252 16.19 10.4325C16.5059 10.4398 16.768 10.1897 16.7753 9.87372C16.8028 8.68655 16.4209 7.66282 15.6632 6.84542L15.6621 6.84434C14.8879 6.01349 13.8257 5.57395 12.546 5.48806L12.5269 5.48678H12.4693Z" fill="black"/>
<path d="M12.448 7.40293C12.1324 7.38632 11.8632 7.62865 11.8466 7.9442C11.83 8.25977 12.0724 8.52903 12.3878 8.54564C12.867 8.57085 13.1723 8.71454 13.3643 8.90843C13.5572 9.10315 13.7014 9.41496 13.7277 9.9038C13.7447 10.2194 14.0142 10.4614 14.3298 10.4444C14.6453 10.4274 14.8873 10.1579 14.8704 9.84235C14.8334 9.15577 14.6185 8.54876 14.1774 8.10324C13.7354 7.6569 13.1317 7.43892 12.448 7.40293Z" fill="black"/>
<path fill-rule="evenodd" clip-rule="evenodd" d="M6.2007 0.61045C9.84191 -0.203483 13.618 -0.203483 17.2592 0.61045L17.6472 0.697164C19.8177 1.18233 21.5307 2.84707 22.0778 5.00276C23.002 8.64486 23.002 12.4602 22.0778 16.1022C21.5307 18.2579 19.8176 19.9227 17.6472 20.4078L17.2592 20.4946C14.972 21.0058 12.6316 21.1959 10.3048 21.0649L7.26875 23.7813C7.03562 23.9899 6.70746 24.0551 6.41229 23.9516C6.11712 23.848 5.9017 23.5921 5.85004 23.2834L5.34792 20.2839C3.39989 19.6786 1.88954 18.1015 1.38216 16.1022C0.457898 12.4602 0.457898 8.64487 1.38216 5.00277C1.92921 2.84707 3.64229 1.18233 5.81275 0.697164L6.2007 0.61045ZM16.8848 2.28554C13.4901 1.52673 9.96984 1.52673 6.57514 2.28554L6.18719 2.37226C4.64831 2.71624 3.43373 3.89655 3.04586 5.42497C2.19191 8.78998 2.19191 12.315 3.04586 15.68C3.43373 17.2084 4.6483 18.3887 6.18719 18.7327L6.28967 18.7556C6.63054 18.8318 6.89122 19.107 6.94889 19.4516L7.28562 21.4631L9.42816 19.5461C9.60115 19.3912 9.82944 19.3132 10.061 19.3296C12.3422 19.491 14.641 19.321 16.8848 18.8194L17.2727 18.7327C18.8117 18.3887 20.0262 17.2084 20.4141 15.6801C21.268 12.315 21.268 8.78998 20.4141 5.42497C20.0262 3.89655 18.8117 2.71624 17.2727 2.37226L16.8848 2.28554Z" fill="black"/>
</svg>
